<svg xmlns="http://www.w3.org/2000/svg" width="46.473" height="48.637" viewBox="0 0 46.473 48.637">
  <g id="Group_30" data-name="Group 30" transform="translate(-5652.457 -316)">
    <g id="Ellipse_40" data-name="Ellipse 40" transform="translate(5663 316)" fill="none" stroke="#707070" stroke-width="2">
      <circle cx="12.5" cy="12.5" r="12.5" stroke="none"/>
      <circle cx="12.5" cy="12.5" r="11.5" fill="none"/>
    </g>
    <g id="Path_70" data-name="Path 70" transform="translate(5647 348)" fill="none">
      <path d="M14.857,0h27.8c4.694,0,9.268,10.149,9.268,10.149,0,4.694-16.98,6.488-23.435,6.488S5.457,14.843,5.457,10.149C5.457,10.149,10.163,0,14.857,0Z" stroke="none"/>
      <path d="M 14.857421875 1.999999046325684 C 14.30054473876953 1.999999046325684 13.54543304443359 2.385599136352539 12.73122406005859 3.085779190063477 C 11.88793182373047 3.810938835144043 10.99177169799805 4.850288391113281 10.06763458251953 6.174939155578613 C 8.929588317871094 7.80620002746582 8.037117004394531 9.465307235717773 7.588802337646484 10.34653568267822 C 7.788818359375 10.58498954772949 8.276641845703125 11.01546192169189 9.433605194091797 11.53984832763672 C 10.87690353393555 12.19401931762695 12.88201522827148 12.78054904937744 15.39324188232422 13.28313827514648 C 20.03986358642578 14.21309852600098 25.44211387634277 14.63665866851807 28.49511337280273 14.63665866851807 C 31.54232406616211 14.63665866851807 36.97233581542969 14.21877861022949 41.69359588623047 13.30127906799316 C 44.25197219848633 12.80409908294678 46.30643463134766 12.22342872619629 47.79992294311523 11.57538890838623 C 48.9963264465332 11.05626201629639 49.56879425048828 10.59686660766602 49.80110549926758 10.33244895935059 C 49.37087631225586 9.463174819946289 48.51376724243164 7.828392028808594 47.40418243408203 6.201258659362793 C 46.49514389038086 4.868228912353516 45.6104736328125 3.82206916809082 44.77475357055664 3.091849327087402 C 43.96893310546875 2.387759208679199 43.21865463256836 1.999999046325684 42.66211318969727 1.999999046325684 L 14.857421875 1.999999046325684 M 14.857421875 -1.9073486328125e-06 L 42.66211318969727 -1.9073486328125e-06 C 47.35653305053711 -1.9073486328125e-06 51.93017196655273 10.14892864227295 51.93017196655273 10.14892864227295 C 51.93017196655273 14.84334850311279 34.94970321655273 16.63665962219238 28.49511337280273 16.63665962219238 C 22.04052352905273 16.63665962219238 5.457035064697266 14.84334850311279 5.457035064697266 10.14892864227295 C 5.457035064697266 10.14892864227295 10.16300201416016 -1.9073486328125e-06 14.857421875 -1.9073486328125e-06 Z" stroke="none" fill="#707070"/>
    </g>
  </g>
</svg>
