<svg xmlns="http://www.w3.org/2000/svg" width="49" height="55" viewBox="0 0 49 55">
  <g id="Group_31" data-name="Group 31" transform="translate(-5576 -313)">
    <g id="Path_71" data-name="Path 71" transform="translate(5576 313)" fill="none">
      <path d="M12,0H37A12,12,0,0,1,49,12V55H0V12A12,12,0,0,1,12,0Z" stroke="none"/>
      <path d="M 12 2 C 6.485980987548828 2 2 6.485980987548828 2 12 L 2 43 L 2 53 L 47 53 L 47 43 L 47 12 C 47 6.485980987548828 42.51401901245117 2 37 2 L 12 2 M 12 0 L 37 0 C 43.62741851806641 0 49 5.372581481933594 49 12 L 49 43 C 49 49.62741851806641 49 55 49 55 L 0 55 C 0 55 0 49.62741851806641 0 43 L 0 12 C 0 5.372581481933594 5.372581481933594 0 12 0 Z" stroke="none" fill="#707070"/>
    </g>
    <g id="Path_72" data-name="Path 72" transform="translate(5576 313)" fill="none">
      <path d="M12,0H37A12,12,0,0,1,49,12s-3.208,4.581-12,4.581-15.75.483-25,0S0,12,0,12A11.863,11.863,0,0,1,12,0Z" stroke="none"/>
      <path d="M 12.00000381469727 2 C 9.270973205566406 2 6.735313415527344 3.035530090332031 4.860111236572266 4.915840148925781 C 3.175868988037109 6.604666709899902 2.1832275390625 8.837151527404785 2.022968292236328 11.26482391357422 C 2.360584259033203 11.58464050292969 2.935726165771484 12.05326271057129 3.809253692626953 12.53567981719971 C 5.282024383544922 13.34904956817627 7.916664123535156 14.36454010009766 12.10432434082031 14.58325958251953 C 14.87353134155273 14.7278995513916 17.5854434967041 14.79525947570801 20.63887214660645 14.79525947570801 C 23.29634284973145 14.79525947570801 25.81518173217773 14.74471950531006 28.4819221496582 14.69120025634766 C 31.19318199157715 14.63679981231689 33.99674224853516 14.58053970336914 37.00000381469727 14.58053970336914 C 40.12669372558594 14.58053970336914 42.91436386108398 13.92908954620361 45.0616340637207 12.69661998748779 C 45.9833869934082 12.16756248474121 46.60795593261719 11.63385009765625 46.97389984130859 11.27366256713867 C 46.60044479370117 6.097537040710449 42.26968765258789 2 37.00000381469727 2 L 12.00000381469727 2 M 12.00000381469727 0 L 37.00000381469727 0 C 43.62742233276367 0 49.00000381469727 5.372579574584961 49.00000381469727 12 C 49.00000381469727 12 45.79174423217773 16.58053970336914 37.00000381469727 16.58053970336914 C 31.13919448852539 16.58053970336914 26.09217643737793 16.79525947570801 20.63887214660645 16.79525947570801 C 17.91172218322754 16.79525947570801 15.08371353149414 16.74160003662109 12.00000381469727 16.58053970336914 C 2.750003814697266 16.09741020202637 3.814697265625e-06 12 3.814697265625e-06 12 C -0.01855850219726563 5.173549652099609 5.372581481933594 0 12.00000381469727 0 Z" stroke="none" fill="#707070"/>
    </g>
    <path id="Path_73" data-name="Path 73" d="M0,0S2.478,12.014,17.6,12.014,35,0,35,0" transform="translate(5583.5 340.5)" fill="none" stroke="#707070" stroke-width="2"/>
  </g>
</svg>
