<svg id="Layer_1_1_" enable-background="new 0 0 64 64" height="512" viewBox="0 0 64 64" width="512" xmlns="http://www.w3.org/2000/svg"><path d="m8.961 15.46h34v32h-34z" fill="#90622a" transform="matrix(.983 -.182 .182 .983 -5.294 5.252)"/><path d="m12.743 9.5-6.41 9.323 12.782-2.367 7.867-1.456 12.782-2.367 6.41-9.323z" fill="#7a5324"/><path d="m46.174 3.31-6.41 9.323 5.826 31.465 6.41-9.323z" fill="#7a5324"/><path d="m20.232 15.619h8v13h-8z" fill="#fca947" transform="matrix(.983 -.182 .182 .983 -3.622 4.781)"/><path d="m26.982 14.999-7.867 1.457 6.41-9.323 7.867-1.456z" fill="#fca947"/><g fill="#7a5324"><path d="m32.674 31.609 1.824.332c-.757-.603-1.169-1.589-.965-2.605.266-1.331 1.488-2.25 2.84-2.137l9.627.801-3.828-5.359c-.676-.947-.569-2.244.254-3.066.231-.231.499-.402.784-.518l-.534-.468c-.943-.825-2.364-.778-3.25.108-.823.823-.93 2.119-.254 3.066l3.828 5.36-9.627-.802c-1.352-.113-2.574.807-2.84 2.137-.293 1.464.672 2.884 2.141 3.151z"/><path d="m37.536 43.848 6.464-4.848-6.023 1.39-3.441 2.58c-.89.667-1.175 1.875-.678 2.87.07.139.152.267.244.384l2.523-.467c-.021-.728.296-1.448.911-1.909z"/><path d="m30.489 39.446c-.271-1.356.597-2.679 1.95-2.969l11.561-2.477-3.838-.698-10.723 2.298c-1.353.29-2.221 1.612-1.95 2.969.28 1.398 1.659 2.289 3.049 1.968l.398-.092c-.213-.289-.372-.623-.447-.999z"/><path d="m18 40 9.627-.802c1.14-.095 2.181.548 2.641 1.549.744-.643 1.14-1.649.933-2.684-.282-1.408-1.574-2.38-3.004-2.261l-7.652.638z"/><path d="m21.574 31.574c.013.013.022.028.034.041l.453-.635c.715-1.001.602-2.373-.268-3.243-.937-.937-2.44-.987-3.438-.115l-6.69 5.854-2.83-1.132.678 3.661 2.487.995 6.324-5.534c.943-.825 2.364-.778 3.25.108z"/><path d="m32.357 45.617-4.706-1.008-7.651 1.391 7.1 1.521 6.546-1.212c-.347-.334-.783-.584-1.289-.692z"/></g><path d="m2 33 10 4 6.324-5.534c.943-.825 2.364-.778 3.25.108.823.823.93 2.119.254 3.066l-3.828 5.36 9.627-.802c1.352-.113 2.574.807 2.84 2.137.293 1.464-.672 2.884-2.141 3.151l-8.326 1.514 11.561 2.477c1.353.29 2.221 1.612 1.95 2.969-.28 1.398-1.659 2.289-3.049 1.968l-10.462-2.414 6.464 4.848c.89.667 1.175 1.875.678 2.87-.61 1.221-2.143 1.645-3.294.912l-8.848-5.63 2 4c.552 1.105.105 2.448-1 3-1.105.552-2.448.105-3-1l-5-10-6-3" fill="#fee6d5"/><path d="m62 21-10 4-6.324-5.534c-.943-.825-2.364-.778-3.25.108-.823.823-.93 2.119-.254 3.066l3.828 5.36-9.627-.802c-1.352-.113-2.574.807-2.84 2.137-.293 1.464.672 2.884 2.141 3.151l8.326 1.514-11.561 2.477c-1.353.29-2.221 1.612-1.95 2.969.28 1.398 1.659 2.289 3.049 1.968l10.462-2.414-6.464 4.848c-.89.667-1.175 1.875-.678 2.87.61 1.221 2.143 1.645 3.294.912l8.848-5.63-1.544 5.405c-.255.892.238 1.827 1.118 2.12.818.273 1.712-.098 2.098-.869l5.328-10.656 6-3" fill="#fee6d5"/><path d="m55.553 37.105c-.193.097-.351.254-.447.447l-5.328 10.655c-.162.324-.543.483-.888.367-.373-.124-.581-.518-.473-.896l1.544-5.404c.114-.399-.03-.827-.363-1.076-.333-.248-.785-.266-1.135-.042l-8.847 5.63c-.316.201-.688.256-1.047.156s-.649-.338-.816-.672c-.282-.563-.121-1.245.383-1.623l6.464-4.847c.378-.283.506-.793.307-1.222s-.672-.659-1.131-.553l-10.463 2.414c-.405.095-.823.021-1.172-.204-.351-.227-.588-.576-.67-.985-.163-.815.366-1.62 1.179-1.795l11.561-2.478c.467-.1.798-.516.791-.993-.008-.478-.352-.883-.821-.968l-8.326-1.514c-.445-.081-.829-.332-1.083-.706-.254-.373-.345-.823-.256-1.266.167-.833.929-1.413 1.776-1.337l9.627.802c.381.042.76-.163.953-.502.192-.339.17-.759-.056-1.075l-3.829-5.359c-.394-.551-.332-1.299.147-1.778.511-.511 1.339-.54 1.884-.063l6.324 5.534c.283.246.679.314 1.03.176l10-4-.743-1.857-9.431 3.772-1.437-1.257-3.603-19.457-.009.002c-.023-.127-.062-.252-.135-.365-.22-.339-.62-.511-1.021-.438l-33.432 6.189c-.261.049-.492.198-.642.417l-6.41 9.322c-.15.219-.208.487-.159.748l2.85 15.399-5.829-2.331-.743 1.857 10 4c.352.14.748.071 1.03-.176l6.324-5.534c.544-.477 1.373-.449 1.884.063.479.479.542 1.228.147 1.778l-3.828 5.359c-.226.316-.248.736-.056 1.075s.566.542.953.502l9.627-.802c.851-.067 1.61.505 1.776 1.337.088.442-.002.893-.256 1.266-.254.374-.638.625-1.083.706l-8.326 1.514c-.47.085-.813.49-.821.968-.007.478.324.894.791.993l11.561 2.478c.813.175 1.342.979 1.179 1.795-.082.409-.32.759-.67.985-.35.225-.766.299-1.173.204l-10.462-2.414c-.458-.105-.932.124-1.131.553s-.072.938.306 1.221l6.464 4.848c.503.378.665 1.061.383 1.623-.167.334-.457.572-.816.672-.361.099-.732.045-1.046-.156l-8.848-5.63c-.377-.239-.872-.2-1.207.102-.333.301-.425.787-.225 1.189l2 4c.305.609.057 1.354-.553 1.658-.294.147-.629.171-.943.067-.313-.104-.567-.324-.715-.62l-5-10c-.097-.193-.254-.351-.447-.447l-6-3-.895 1.789 5.702 2.851 4.851 9.702c.387.773 1.051 1.35 1.871 1.623.336.112.682.168 1.026.168.496 0 .988-.116 1.445-.344 1.595-.799 2.245-2.746 1.447-4.342l-.386-.771 5.802 3.691c.788.501 1.755.646 2.654.396.899-.249 1.654-.871 2.071-1.705.714-1.429.305-3.16-.972-4.117l-2.68-2.01 5.854 1.351c.936.216 1.898.048 2.707-.473.809-.522 1.358-1.329 1.547-2.273.352-1.762-.703-3.487-2.378-4.032l3.753-.695c.033.083.058.168.098.25.417.834 1.172 1.456 2.071 1.705.898.248 1.866.104 2.654-.396l6.625-4.216-.82 2.872c-.403 1.411.372 2.88 1.763 3.343.282.095.571.14.856.14 1.012 0 1.982-.566 2.454-1.51l5.178-10.357 5.702-2.851-.895-1.789zm-16.378-25.38-10.002 1.852 4.807-6.991 10.002-1.852zm-17.868 3.308 4.807-6.991 5.085-.942-4.807 6.991zm4.874 1.131 2.002 10.816-5.899 1.093-2.003-10.817zm-12.849-5.756 10.001-1.852-4.807 6.991-10.001 1.852zm4.334 20.305-5.863 5.131-1.406-.562-2.899-15.659 10.816-2.002 2.185 11.799c.051.276.217.494.432.639-1.098-.354-2.344-.151-3.265.654zm9.878 7.489-7.475.622 2.573-3.603c.964-1.349.813-3.181-.36-4.354-.281-.281-.605-.494-.948-.655.05.008.096.026.148.026.06 0 .122-.005.183-.017l7.866-1.456c.261-.049.492-.198.642-.417s.208-.487.159-.748l-2.184-11.8 10.816-2.002.441 2.384 1.967-.363-.548-2.96 4.807-6.992 2.702 14.596-1.999-1.749c-1.334-1.166-3.361-1.1-4.616.154-1.173 1.174-1.324 3.006-.36 4.354l2.573 3.603-7.475-.622c-1.863-.157-3.537 1.106-3.904 2.937-.195.973.005 1.961.563 2.782s1.403 1.371 2.38 1.549l3.357.61-6.623 1.42c-1.515.325-2.586 1.603-2.75 3.073-.582-.29-1.245-.429-1.935-.372zm8.166 6.708-8.596 1.592-1.966-.422 3.357-.61c.977-.178 1.822-.728 2.379-1.549.365-.538.56-1.15.608-1.781.708.329 1.496.426 2.269.248l5.854-1.351-2.68 2.01c-.631.475-1.049 1.14-1.225 1.863z"/><path d="m7 9h2c0-2.757 2.243-5 5-5h1v-2h-1c-3.86 0-7 3.141-7 7z"/><path d="m51 60v2h1c3.86 0 7-3.141 7-7h-2c0 2.757-2.243 5-5 5z"/><path d="m49 57h-1v2h1c3.86 0 7-3.141 7-7h-2c0 2.757-2.243 5-5 5z"/></svg>